# xmcd
#
# Track frame offsets: 
#        150
#        2432
#        26322
#        37875
#        51315
#        65800
#        86142
#        98230
#        118175
#        137307
#        150462
#        168552
#        179645
#        190927
#
# Disc length: 2716 seconds
#
# Revision: 5
# Processed by: cddbd v1.5.2PL0 Copyright (c) Steve Scherf et al.
# Submitted via: ExactAudioCopy v0.95a5
#
DISCID=b40a9a0e
DTITLE=Ricky Skaggs - Soldier of the Cross
DYEAR=1999
DGENRE=Bluegrass
TTITLE0=Battle Cry
TTITLE1=Soldier of the Cross
TTITLE2=A Voice from on High
TTITLE3=The Darkest Hour
TTITLE4=Gone Home
TTITLE5=The Joshua Generation
TTITLE6=Waiting at the Gate
TTITLE7=Seven Hillsides
TTITLE8=Are You Afraid to Die
TTITLE9=Remember the Cross
TTITLE10=Were You There
TTITLE11=Jacob's Vision
TTITLE12=I'm Ready to Go
TTITLE13=Lead Me to the Rock
EXTD=YEAR: 1999
EXTT0=
EXTT1=
EXTT2=
EXTT3=
EXTT4=
EXTT5=
EXTT6=
EXTT7=
EXTT8=
EXTT9=
EXTT10=
EXTT11=
EXTT12=
EXTT13=
PLAYORDER=
